<svg width="12" height="21" viewBox="0 0 12 21" fill="none" xmlns="http://www.w3.org/2000/svg">
<path d="M1.50748 21C1.20979 21.0017 0.918325 20.9147 0.670251 20.75C0.422176 20.5854 0.228729 20.3506 0.114573 20.0755C0.000416829 19.8004 -0.0292759 19.4975 0.0292802 19.2055C0.0878364 18.9134 0.231988 18.6455 0.443357 18.4357L8.3868 10.5031L0.443357 2.57038C0.161135 2.28801 0.00258391 1.90503 0.00258391 1.5057C0.00258391 1.30797 0.0415089 1.11217 0.117137 0.929491C0.192765 0.746812 0.303615 0.580825 0.443357 0.441008C0.5831 0.301191 0.748997 0.190283 0.93158 0.114615C1.11416 0.0389464 1.30985 0 1.50748 0C1.9066 0 2.28938 0.158635 2.5716 0.441008L11.5642 9.43837C11.8433 9.71933 12 10.0994 12 10.4956C12 10.8917 11.8433 11.2718 11.5642 11.5527L2.5716 20.5501C2.43279 20.6918 2.26726 20.8045 2.0846 20.8817C1.90194 20.959 1.70578 20.9992 1.50748 21Z" fill="white"/>
</svg>
